<?xml version="1.0" encoding="UTF-8"?>
<svg xmlns="http://www.w3.org/2000/svg" xmlns:xlink="http://www.w3.org/1999/xlink" width="40px" height="40px" viewBox="0 0 40 40" version="1.1">
<g id="surface1">
<path style=" stroke:none;fill-rule:nonzero;fill:rgb(100%,100%,100%);fill-opacity:1;" d="M 32.308594 30.546875 L 29.5625 31.457031 C 29.625 31.65625 29.65625 31.867188 29.65625 32.085938 C 29.65625 32.386719 29.59375 32.671875 29.480469 32.933594 L 32.148438 34.050781 C 32.40625 33.449219 32.550781 32.785156 32.550781 32.085938 C 32.550781 31.546875 32.464844 31.03125 32.308594 30.546875 Z M 32.308594 30.546875 "/>
<path style=" stroke:none;fill-rule:nonzero;fill:rgb(100%,67.45098%,76.078431%);fill-opacity:1;" d="M 26.714844 30.148438 L 25.597656 27.480469 C 24.273438 28.042969 23.242188 29.164062 22.792969 30.546875 L 25.539062 31.457031 C 25.722656 30.867188 26.15625 30.390625 26.714844 30.148438 Z M 29.566406 31.453125 L 32.3125 30.542969 C 31.824219 29.03125 30.636719 27.832031 29.128906 27.332031 L 28.21875 30.078125 C 28.859375 30.292969 29.363281 30.808594 29.566406 31.453125 Z M 25.617188 32.929688 L 22.949219 34.046875 C 23.460938 35.242188 24.421875 36.195312 25.621094 36.699219 L 26.738281 34.03125 C 26.238281 33.824219 25.835938 33.425781 25.617188 32.929688 Z M 28.191406 34.09375 L 29.101562 36.835938 C 30.476562 36.386719 31.585938 35.363281 32.152344 34.046875 L 29.484375 32.929688 C 29.242188 33.480469 28.773438 33.90625 28.191406 34.09375 Z M 28.191406 34.09375 "/>
<path style=" stroke:none;fill-rule:nonzero;fill:rgb(100%,100%,100%);fill-opacity:1;" d="M 27.550781 29.972656 C 27.785156 29.972656 28.007812 30.011719 28.214844 30.082031 L 29.125 27.335938 C 28.628906 27.171875 28.101562 27.082031 27.550781 27.082031 C 26.855469 27.082031 26.195312 27.222656 25.59375 27.480469 L 26.710938 30.148438 C 26.96875 30.035156 27.253906 29.972656 27.550781 29.972656 Z M 27.550781 34.191406 C 27.265625 34.191406 26.992188 34.132812 26.742188 34.03125 L 25.625 36.699219 C 26.21875 36.945312 26.867188 37.085938 27.550781 37.085938 C 28.09375 37.085938 28.613281 37 29.101562 36.839844 L 28.191406 34.09375 C 27.992188 34.15625 27.773438 34.191406 27.550781 34.191406 Z M 25.441406 32.082031 C 25.441406 31.863281 25.476562 31.652344 25.535156 31.453125 L 22.792969 30.546875 C 22.636719 31.03125 22.550781 31.546875 22.550781 32.085938 C 22.550781 32.78125 22.695312 33.445312 22.953125 34.050781 L 25.621094 32.933594 C 25.503906 32.671875 25.441406 32.382812 25.441406 32.082031 Z M 25.441406 32.082031 "/>
<path style=" stroke:none;fill-rule:nonzero;fill:rgb(60.392157%,17.647059%,18.431373%);fill-opacity:1;" d="M 37.046875 27.445312 C 36.507812 27.445312 36.238281 27.0625 36.042969 26.78125 C 35.84375 26.496094 35.742188 26.382812 35.546875 26.382812 C 35.351562 26.382812 35.253906 26.5 35.050781 26.78125 C 34.851562 27.0625 34.582031 27.445312 34.046875 27.445312 C 33.511719 27.445312 33.238281 27.0625 33.042969 26.78125 C 32.84375 26.496094 32.742188 26.382812 32.546875 26.382812 C 32.351562 26.382812 32.253906 26.5 32.050781 26.78125 C 31.851562 27.0625 31.582031 27.445312 31.046875 27.445312 C 30.507812 27.445312 30.238281 27.0625 30.042969 26.78125 C 29.84375 26.496094 29.742188 26.382812 29.546875 26.382812 C 29.375 26.382812 29.234375 26.242188 29.234375 26.070312 C 29.234375 25.898438 29.375 25.757812 29.546875 25.757812 C 30.085938 25.757812 30.355469 26.140625 30.550781 26.421875 C 30.75 26.707031 30.851562 26.820312 31.046875 26.820312 C 31.242188 26.820312 31.339844 26.703125 31.542969 26.421875 C 31.742188 26.140625 32.011719 25.757812 32.546875 25.757812 C 33.085938 25.757812 33.355469 26.140625 33.550781 26.421875 C 33.75 26.707031 33.851562 26.820312 34.046875 26.820312 C 34.242188 26.820312 34.339844 26.703125 34.542969 26.421875 C 34.742188 26.140625 35.011719 25.757812 35.546875 25.757812 C 36.082031 25.757812 36.355469 26.140625 36.550781 26.421875 C 36.75 26.707031 36.851562 26.820312 37.046875 26.820312 C 37.21875 26.820312 37.359375 26.960938 37.359375 27.132812 C 37.359375 27.304688 37.21875 27.445312 37.046875 27.445312 Z M 37.046875 25.492188 C 36.507812 25.492188 36.238281 25.109375 36.042969 24.828125 C 35.84375 24.542969 35.742188 24.429688 35.546875 24.429688 C 35.351562 24.429688 35.253906 24.546875 35.050781 24.828125 C 34.851562 25.109375 34.582031 25.492188 34.046875 25.492188 C 33.511719 25.492188 33.238281 25.109375 33.042969 24.828125 C 32.84375 24.542969 32.742188 24.429688 32.546875 24.429688 C 32.351562 24.429688 32.253906 24.546875 32.050781 24.828125 C 31.851562 25.109375 31.582031 25.492188 31.046875 25.492188 C 30.507812 25.492188 30.238281 25.109375 30.042969 24.828125 C 29.84375 24.542969 29.742188 24.429688 29.546875 24.429688 C 29.375 24.429688 29.234375 24.289062 29.234375 24.117188 C 29.234375 23.945312 29.375 23.804688 29.546875 23.804688 C 30.085938 23.804688 30.355469 24.1875 30.550781 24.46875 C 30.75 24.753906 30.851562 24.867188 31.046875 24.867188 C 31.242188 24.867188 31.339844 24.75 31.542969 24.46875 C 31.742188 24.1875 32.011719 23.804688 32.546875 23.804688 C 33.085938 23.804688 33.355469 24.1875 33.550781 24.46875 C 33.75 24.753906 33.851562 24.867188 34.046875 24.867188 C 34.242188 24.867188 34.339844 24.75 34.542969 24.46875 C 34.742188 24.1875 35.011719 23.804688 35.546875 23.804688 C 36.082031 23.804688 36.355469 24.1875 36.550781 24.46875 C 36.75 24.753906 36.851562 24.867188 37.046875 24.867188 C 37.21875 24.867188 37.359375 25.007812 37.359375 25.179688 C 37.359375 25.351562 37.21875 25.492188 37.046875 25.492188 Z M 9.351562 10.960938 C 8.847656 10.960938 8.601562 10.566406 8.421875 10.28125 C 8.253906 10.011719 8.167969 9.894531 8.023438 9.894531 C 7.878906 9.894531 7.792969 10.011719 7.625 10.28125 C 7.445312 10.566406 7.199219 10.960938 6.695312 10.960938 C 6.191406 10.960938 5.945312 10.566406 5.765625 10.28125 C 5.597656 10.011719 5.511719 9.894531 5.367188 9.894531 C 5.222656 9.894531 5.136719 10.011719 4.96875 10.28125 C 4.789062 10.566406 4.542969 10.960938 4.039062 10.960938 C 3.535156 10.960938 3.289062 10.566406 3.109375 10.28125 C 2.941406 10.011719 2.855469 9.894531 2.710938 9.894531 C 2.539062 9.894531 2.398438 9.753906 2.398438 9.582031 C 2.398438 9.410156 2.539062 9.269531 2.710938 9.269531 C 3.214844 9.269531 3.460938 9.664062 3.640625 9.949219 C 3.808594 10.21875 3.894531 10.335938 4.039062 10.335938 C 4.183594 10.335938 4.269531 10.21875 4.4375 9.949219 C 4.617188 9.664062 4.863281 9.269531 5.367188 9.269531 C 5.871094 9.269531 6.117188 9.664062 6.296875 9.949219 C 6.464844 10.21875 6.550781 10.335938 6.695312 10.335938 C 6.839844 10.335938 6.925781 10.21875 7.09375 9.949219 C 7.273438 9.664062 7.519531 9.269531 8.023438 9.269531 C 8.527344 9.269531 8.773438 9.664062 8.953125 9.949219 C 9.121094 10.21875 9.207031 10.335938 9.351562 10.335938 C 9.523438 10.335938 9.664062 10.476562 9.664062 10.648438 C 9.664062 10.820312 9.523438 10.960938 9.351562 10.960938 Z M 10.207031 9.007812 C 9.667969 9.007812 9.398438 8.625 9.203125 8.34375 C 9.003906 8.058594 8.902344 7.945312 8.707031 7.945312 C 8.511719 7.945312 8.414062 8.0625 8.210938 8.34375 C 8.011719 8.625 7.742188 9.007812 7.207031 9.007812 C 6.667969 9.007812 6.398438 8.625 6.203125 8.34375 C 6.003906 8.058594 5.902344 7.945312 5.707031 7.945312 C 5.511719 7.945312 5.414062 8.0625 5.210938 8.34375 C 5.011719 8.625 4.742188 9.007812 4.207031 9.007812 C 3.671875 9.007812 3.398438 8.625 3.203125 8.34375 C 3.003906 8.058594 2.902344 7.945312 2.707031 7.945312 C 2.535156 7.945312 2.394531 7.804688 2.394531 7.632812 C 2.394531 7.460938 2.535156 7.320312 2.707031 7.320312 C 3.246094 7.320312 3.515625 7.703125 3.710938 7.984375 C 3.910156 8.269531 4.011719 8.382812 4.207031 8.382812 C 4.402344 8.382812 4.5 8.265625 4.703125 7.984375 C 4.902344 7.703125 5.171875 7.320312 5.707031 7.320312 C 6.242188 7.320312 6.515625 7.703125 6.710938 7.984375 C 6.910156 8.269531 7.011719 8.382812 7.207031 8.382812 C 7.402344 8.382812 7.5 8.265625 7.703125 7.984375 C 7.902344 7.703125 8.171875 7.320312 8.707031 7.320312 C 9.242188 7.320312 9.515625 7.703125 9.710938 7.984375 C 9.910156 8.269531 10.011719 8.382812 10.207031 8.382812 C 10.378906 8.382812 10.519531 8.523438 10.519531 8.695312 C 10.519531 8.867188 10.378906 9.007812 10.207031 9.007812 Z M 10.207031 9.007812 "/>
<path style=" stroke:none;fill-rule:nonzero;fill:rgb(85.490196%,89.803922%,100%);fill-opacity:1;" d="M 32.644531 37.160156 L 7.152344 37.160156 C 5.398438 37.160156 3.960938 35.722656 3.960938 33.96875 L 3.960938 33.949219 C 3.960938 33.652344 4.203125 33.410156 4.5 33.410156 L 35.296875 33.410156 C 35.59375 33.410156 35.835938 33.652344 35.835938 33.949219 L 35.835938 33.96875 C 35.835938 35.726562 34.398438 37.160156 32.644531 37.160156 Z M 32.644531 37.160156 "/>
<path style=" stroke:none;fill-rule:nonzero;fill:rgb(100%,67.45098%,76.078431%);fill-opacity:1;" d="M 19.972656 3.726562 C 17.414062 4.734375 15.070312 6.171875 13.035156 7.953125 L 19.972656 9.8125 Z M 19.972656 3.726562 "/>
<path style=" stroke:none;fill-rule:nonzero;fill:rgb(100%,92.156863%,30.196078%);fill-opacity:1;" d="M 4.894531 25.871094 C 4.894531 27.574219 5.074219 29.230469 5.414062 30.832031 L 19.972656 30.832031 L 19.972656 25.3125 L 5.316406 21.386719 C 5.039062 22.839844 4.894531 24.335938 4.894531 25.871094 Z M 4.894531 25.871094 "/>
<path style=" stroke:none;fill-rule:nonzero;fill:rgb(96.862745%,83.137255%,100%);fill-opacity:1;" d="M 9.285156 12.097656 L 19.972656 14.960938 L 19.972656 9.8125 L 13.035156 7.953125 C 11.628906 9.179688 10.371094 10.570312 9.285156 12.097656 Z M 9.285156 12.097656 "/>
<path style=" stroke:none;fill-rule:nonzero;fill:rgb(85.490196%,89.803922%,100%);fill-opacity:1;" d="M 6.769531 16.597656 L 19.972656 20.136719 L 19.972656 14.988281 L 9.269531 12.121094 C 8.28125 13.507812 7.441406 15.011719 6.769531 16.597656 Z M 6.769531 16.597656 "/>
<path style=" stroke:none;fill-rule:nonzero;fill:rgb(75.294118%,98.823529%,81.568627%);fill-opacity:1;" d="M 6.769531 16.597656 C 6.125 18.117188 5.632812 19.722656 5.316406 21.386719 L 19.972656 25.3125 L 19.972656 20.136719 Z M 6.769531 16.597656 "/>
<path style=" stroke:none;fill-rule:nonzero;fill:rgb(100%,100%,100%);fill-opacity:1;" d="M 19.632812 4.21875 C 17.496094 5.117188 15.515625 6.320312 13.726562 7.804688 L 16.570312 8.566406 C 17.28125 8.222656 19.273438 6.148438 19.632812 4.21875 Z M 7.953125 26.027344 C 7.953125 25.328125 7.761719 23.824219 8.023438 22.421875 L 5.605469 21.773438 C 5.371094 23.117188 5.25 24.492188 5.25 25.867188 C 5.25 27.429688 5.40625 28.992188 5.710938 30.515625 L 6.734375 30.515625 C 7.609375 29.269531 7.953125 27.355469 7.953125 26.027344 Z M 15.632812 8.960938 L 13.15625 8.296875 C 11.929688 9.382812 10.820312 10.597656 9.847656 11.910156 L 12.128906 12.519531 C 12.175781 11.785156 12.285156 11.117188 12.476562 10.601562 C 12.929688 9.386719 14.167969 9.5 15.632812 8.960938 Z M 7.238281 16.390625 L 10.898438 17.371094 C 11.152344 17.1875 12.089844 16.679688 12.089844 13.1875 L 9.4375 12.476562 C 8.582031 13.710938 7.84375 15.023438 7.238281 16.390625 Z M 8.148438 21.8125 C 8.273438 21.253906 7.980469 19.519531 10.1875 17.828125 L 6.992188 16.972656 C 6.4375 18.324219 6.011719 19.730469 5.71875 21.160156 Z M 8.148438 21.8125 "/>
<path style=" stroke:none;fill-rule:nonzero;fill:rgb(60.392157%,17.647059%,18.431373%);fill-opacity:1;" d="M 36.148438 33.933594 L 36.148438 33.914062 C 36.148438 33.445312 35.765625 33.0625 35.296875 33.0625 L 32.773438 33.0625 C 32.832031 32.742188 32.863281 32.417969 32.863281 32.085938 C 32.863281 31.527344 32.777344 30.980469 32.605469 30.453125 C 32.085938 28.847656 30.824219 27.574219 29.222656 27.042969 C 28.683594 26.863281 28.121094 26.773438 27.550781 26.773438 C 26.832031 26.773438 26.132812 26.914062 25.472656 27.195312 C 25.160156 27.328125 24.867188 27.488281 24.589844 27.675781 L 20.316406 9.746094 C 20.3125 9.730469 20.308594 9.714844 20.300781 9.699219 L 20.300781 3.8125 C 20.300781 3.777344 20.296875 3.746094 20.285156 3.714844 C 20.28125 3.613281 20.230469 3.523438 20.148438 3.464844 C 20.0625 3.40625 19.953125 3.394531 19.859375 3.433594 C 17.285156 4.445312 14.921875 5.886719 12.828125 7.714844 C 11.402344 8.960938 10.125 10.371094 9.03125 11.914062 C 9.027344 11.917969 9.027344 11.921875 9.023438 11.925781 C 9.019531 11.929688 9.019531 11.933594 9.015625 11.9375 C 8.011719 13.355469 7.160156 14.882812 6.484375 16.476562 C 5.824219 18.03125 5.328125 19.664062 5.011719 21.328125 C 4.726562 22.816406 4.585938 24.34375 4.585938 25.871094 C 4.585938 27.5625 4.761719 29.253906 5.109375 30.898438 C 5.140625 31.042969 5.265625 31.144531 5.414062 31.144531 L 19.675781 31.144531 L 19.675781 33.0625 L 4.5 33.0625 C 4.03125 33.0625 3.648438 33.445312 3.648438 33.914062 L 3.648438 33.933594 C 3.648438 35.148438 4.269531 36.222656 5.214844 36.851562 L 2.902344 36.851562 C 2.730469 36.851562 2.589844 36.992188 2.589844 37.164062 C 2.589844 37.335938 2.730469 37.476562 2.902344 37.476562 L 35.089844 37.476562 C 35.261719 37.476562 35.402344 37.335938 35.402344 37.164062 C 35.402344 36.992188 35.261719 36.851562 35.089844 36.851562 L 34.582031 36.851562 C 35.527344 36.222656 36.148438 35.148438 36.148438 33.933594 Z M 32.238281 32.082031 C 32.238281 32.414062 32.203125 32.738281 32.136719 33.058594 L 30.601562 33.058594 L 29.878906 32.753906 C 29.941406 32.535156 29.972656 32.3125 29.972656 32.082031 C 29.972656 31.941406 29.960938 31.796875 29.9375 31.660156 L 31.242188 31.226562 L 32.097656 30.941406 C 32.191406 31.316406 32.238281 31.699219 32.238281 32.082031 Z M 29.320312 27.742188 C 30.496094 28.222656 31.4375 29.167969 31.90625 30.351562 L 30.011719 30.976562 L 29.746094 31.066406 C 29.511719 30.558594 29.105469 30.148438 28.601562 29.90625 Z M 29.347656 32.082031 C 29.347656 32.332031 29.296875 32.574219 29.195312 32.804688 C 29.15625 32.894531 29.109375 32.980469 29.058594 33.058594 L 26.042969 33.058594 C 25.988281 32.976562 25.941406 32.890625 25.902344 32.804688 C 25.800781 32.578125 25.75 32.332031 25.75 32.082031 C 25.75 31.898438 25.777344 31.71875 25.832031 31.546875 C 25.988281 31.046875 26.351562 30.640625 26.835938 30.433594 C 27.0625 30.335938 27.300781 30.285156 27.550781 30.285156 C 27.742188 30.285156 27.933594 30.316406 28.117188 30.378906 C 28.664062 30.5625 29.09375 30.996094 29.265625 31.546875 C 29.320312 31.71875 29.347656 31.902344 29.347656 32.082031 Z M 27.550781 27.394531 C 27.949219 27.394531 28.34375 27.445312 28.726562 27.542969 L 28.011719 29.703125 C 27.859375 29.671875 27.707031 29.660156 27.550781 29.660156 C 27.324219 29.660156 27.101562 29.691406 26.886719 29.753906 L 26.007812 27.65625 C 26.503906 27.484375 27.019531 27.394531 27.550781 27.394531 Z M 24.574219 28.460938 C 24.585938 28.453125 24.59375 28.445312 24.605469 28.4375 C 24.859375 28.230469 25.136719 28.050781 25.433594 27.902344 L 26.3125 30.003906 C 25.890625 30.253906 25.558594 30.625 25.351562 31.066406 L 23.195312 30.351562 C 23.488281 29.609375 23.96875 28.960938 24.574219 28.460938 Z M 25.222656 32.757812 L 24.5 33.0625 L 22.964844 33.0625 C 22.898438 32.742188 22.863281 32.417969 22.863281 32.085938 C 22.863281 31.699219 22.910156 31.316406 23.003906 30.945312 L 24.722656 31.511719 L 25.167969 31.660156 C 25.144531 31.800781 25.132812 31.941406 25.132812 32.082031 C 25.128906 32.3125 25.160156 32.539062 25.222656 32.757812 Z M 19.660156 30.519531 L 5.667969 30.519531 C 5.363281 28.996094 5.207031 27.433594 5.207031 25.871094 C 5.207031 24.496094 5.328125 23.121094 5.5625 21.777344 L 19.660156 25.554688 Z M 19.660156 24.90625 L 5.679688 21.160156 C 5.972656 19.730469 6.398438 18.320312 6.953125 16.972656 L 19.660156 20.378906 Z M 19.660156 19.730469 L 16.550781 18.898438 L 7.199219 16.390625 C 7.804688 15.023438 8.542969 13.707031 9.398438 12.476562 L 19.660156 15.226562 Z M 19.660156 14.554688 L 9.804688 11.910156 C 10.777344 10.59375 11.890625 9.382812 13.113281 8.292969 L 19.261719 9.941406 L 19.660156 10.046875 Z M 19.660156 9.402344 L 18 8.957031 L 13.6875 7.800781 C 15.492188 6.300781 17.496094 5.085938 19.65625 4.1875 L 19.65625 9.402344 Z M 20.300781 12.375 L 24.046875 28.089844 C 23.332031 28.714844 22.792969 29.527344 22.496094 30.449219 C 22.324219 30.976562 22.238281 31.527344 22.238281 32.082031 C 22.238281 32.414062 22.269531 32.738281 22.328125 33.058594 L 20.300781 33.058594 Z M 32.644531 36.8125 L 7.152344 36.8125 C 5.566406 36.8125 4.273438 35.519531 4.273438 33.933594 L 4.273438 33.914062 C 4.273438 33.789062 4.375 33.6875 4.5 33.6875 L 35.296875 33.6875 C 35.421875 33.6875 35.523438 33.789062 35.523438 33.914062 L 35.523438 33.933594 C 35.523438 35.519531 34.230469 36.8125 32.644531 36.8125 Z M 32.644531 36.8125 "/>
<path style=" stroke:none;fill-rule:nonzero;fill:rgb(100%,92.156863%,30.196078%);fill-opacity:1;" d="M 12.394531 3.996094 C 12.394531 4.6875 12.953125 5.246094 13.644531 5.246094 C 14.335938 5.246094 14.894531 4.6875 14.894531 3.996094 C 14.894531 3.304688 14.335938 2.746094 13.644531 2.746094 C 12.953125 2.746094 12.394531 3.304688 12.394531 3.996094 Z M 12.394531 3.996094 "/>
<path style=" stroke:none;fill-rule:nonzero;fill:rgb(60.392157%,17.647059%,18.431373%);fill-opacity:1;" d="M 13.644531 5.558594 C 12.78125 5.558594 12.082031 4.859375 12.082031 3.996094 C 12.082031 3.132812 12.78125 2.433594 13.644531 2.433594 C 14.507812 2.433594 15.207031 3.132812 15.207031 3.996094 C 15.207031 4.859375 14.507812 5.558594 13.644531 5.558594 Z M 13.644531 3.058594 C 13.128906 3.058594 12.707031 3.480469 12.707031 3.996094 C 12.707031 4.511719 13.128906 4.933594 13.644531 4.933594 C 14.160156 4.933594 14.582031 4.511719 14.582031 3.996094 C 14.582031 3.480469 14.160156 3.058594 13.644531 3.058594 Z M 13.644531 3.058594 "/>
</g>
</svg>
