<?xml version="1.0" encoding="UTF-8"?>
<svg xmlns="http://www.w3.org/2000/svg" xmlns:xlink="http://www.w3.org/1999/xlink" width="16px" height="16px" viewBox="0 0 16 16" version="1.1">
<g id="surface1">
<path style=" stroke:none;fill-rule:nonzero;fill:rgb(100%,100%,100%);fill-opacity:1;" d="M 12.921875 12.21875 L 11.824219 12.582031 C 11.851562 12.664062 11.863281 12.746094 11.863281 12.835938 C 11.863281 12.953125 11.835938 13.070312 11.792969 13.171875 L 12.859375 13.621094 C 12.960938 13.378906 13.019531 13.113281 13.019531 12.835938 C 13.019531 12.617188 12.984375 12.414062 12.921875 12.21875 Z M 12.921875 12.21875 "/>
<path style=" stroke:none;fill-rule:nonzero;fill:rgb(100%,67.45098%,76.078431%);fill-opacity:1;" d="M 10.6875 12.058594 L 10.238281 10.992188 C 9.710938 11.21875 9.296875 11.664062 9.117188 12.21875 L 10.214844 12.582031 C 10.289062 12.347656 10.460938 12.15625 10.6875 12.058594 Z M 11.828125 12.582031 L 12.925781 12.21875 C 12.730469 11.613281 12.253906 11.132812 11.652344 10.933594 L 11.289062 12.03125 C 11.542969 12.117188 11.746094 12.324219 11.828125 12.582031 Z M 10.246094 13.171875 L 9.179688 13.617188 C 9.382812 14.097656 9.769531 14.476562 10.25 14.679688 L 10.695312 13.613281 C 10.496094 13.53125 10.335938 13.371094 10.246094 13.171875 Z M 11.277344 13.636719 L 11.640625 14.734375 C 12.191406 14.554688 12.632812 14.144531 12.859375 13.617188 L 11.792969 13.171875 C 11.695312 13.390625 11.507812 13.5625 11.277344 13.636719 Z M 11.277344 13.636719 "/>
<path style=" stroke:none;fill-rule:nonzero;fill:rgb(100%,100%,100%);fill-opacity:1;" d="M 11.019531 11.988281 C 11.113281 11.988281 11.203125 12.003906 11.285156 12.03125 L 11.648438 10.933594 C 11.453125 10.867188 11.242188 10.832031 11.019531 10.832031 C 10.742188 10.832031 10.476562 10.890625 10.238281 10.992188 L 10.683594 12.058594 C 10.789062 12.015625 10.902344 11.988281 11.019531 11.988281 Z M 11.019531 13.675781 C 10.90625 13.675781 10.796875 13.652344 10.695312 13.613281 L 10.25 14.679688 C 10.488281 14.777344 10.746094 14.835938 11.019531 14.835938 C 11.238281 14.835938 11.445312 14.800781 11.640625 14.734375 L 11.277344 13.636719 C 11.195312 13.664062 11.109375 13.675781 11.019531 13.675781 Z M 10.175781 12.832031 C 10.175781 12.746094 10.191406 12.660156 10.214844 12.582031 L 9.117188 12.21875 C 9.054688 12.414062 9.019531 12.617188 9.019531 12.835938 C 9.019531 13.113281 9.078125 13.378906 9.179688 13.621094 L 10.25 13.171875 C 10.203125 13.070312 10.175781 12.953125 10.175781 12.832031 Z M 10.175781 12.832031 "/>
<path style=" stroke:none;fill-rule:nonzero;fill:rgb(60.392157%,17.647059%,18.431373%);fill-opacity:1;" d="M 14.820312 10.976562 C 14.601562 10.976562 14.496094 10.824219 14.417969 10.710938 C 14.335938 10.597656 14.296875 10.554688 14.21875 10.554688 C 14.140625 10.554688 14.101562 10.601562 14.019531 10.710938 C 13.941406 10.824219 13.832031 10.976562 13.617188 10.976562 C 13.40625 10.976562 13.296875 10.824219 13.21875 10.710938 C 13.136719 10.597656 13.097656 10.554688 13.019531 10.554688 C 12.941406 10.554688 12.902344 10.601562 12.820312 10.710938 C 12.742188 10.824219 12.632812 10.976562 12.417969 10.976562 C 12.203125 10.976562 12.09375 10.824219 12.015625 10.710938 C 11.9375 10.597656 11.898438 10.554688 11.820312 10.554688 C 11.75 10.554688 11.695312 10.496094 11.695312 10.429688 C 11.695312 10.359375 11.75 10.304688 11.820312 10.304688 C 12.035156 10.304688 12.140625 10.457031 12.21875 10.570312 C 12.300781 10.683594 12.339844 10.726562 12.417969 10.726562 C 12.496094 10.726562 12.535156 10.679688 12.617188 10.570312 C 12.695312 10.457031 12.804688 10.304688 13.019531 10.304688 C 13.234375 10.304688 13.34375 10.457031 13.421875 10.570312 C 13.5 10.683594 13.539062 10.726562 13.617188 10.726562 C 13.695312 10.726562 13.734375 10.679688 13.816406 10.570312 C 13.898438 10.457031 14.003906 10.304688 14.21875 10.304688 C 14.433594 10.304688 14.542969 10.457031 14.621094 10.570312 C 14.699219 10.683594 14.742188 10.726562 14.820312 10.726562 C 14.886719 10.726562 14.945312 10.785156 14.945312 10.851562 C 14.945312 10.921875 14.886719 10.976562 14.820312 10.976562 Z M 14.820312 10.195312 C 14.601562 10.195312 14.496094 10.042969 14.417969 9.929688 C 14.335938 9.816406 14.296875 9.773438 14.21875 9.773438 C 14.140625 9.773438 14.101562 9.820312 14.019531 9.929688 C 13.941406 10.042969 13.832031 10.195312 13.617188 10.195312 C 13.40625 10.195312 13.296875 10.042969 13.21875 9.929688 C 13.136719 9.816406 13.097656 9.773438 13.019531 9.773438 C 12.941406 9.773438 12.902344 9.820312 12.820312 9.929688 C 12.742188 10.042969 12.632812 10.195312 12.417969 10.195312 C 12.203125 10.195312 12.09375 10.042969 12.015625 9.929688 C 11.9375 9.816406 11.898438 9.773438 11.820312 9.773438 C 11.75 9.773438 11.695312 9.714844 11.695312 9.648438 C 11.695312 9.578125 11.75 9.523438 11.820312 9.523438 C 12.035156 9.523438 12.140625 9.675781 12.21875 9.789062 C 12.300781 9.902344 12.339844 9.945312 12.417969 9.945312 C 12.496094 9.945312 12.535156 9.898438 12.617188 9.789062 C 12.695312 9.675781 12.804688 9.523438 13.019531 9.523438 C 13.234375 9.523438 13.34375 9.675781 13.421875 9.789062 C 13.5 9.902344 13.539062 9.945312 13.617188 9.945312 C 13.695312 9.945312 13.734375 9.898438 13.816406 9.789062 C 13.898438 9.675781 14.003906 9.523438 14.21875 9.523438 C 14.433594 9.523438 14.542969 9.675781 14.621094 9.789062 C 14.699219 9.902344 14.742188 9.945312 14.820312 9.945312 C 14.886719 9.945312 14.945312 10.003906 14.945312 10.070312 C 14.945312 10.140625 14.886719 10.195312 14.820312 10.195312 Z M 3.742188 4.382812 C 3.539062 4.382812 3.441406 4.226562 3.367188 4.113281 C 3.300781 4.003906 3.265625 3.957031 3.210938 3.957031 C 3.152344 3.957031 3.117188 4.003906 3.050781 4.113281 C 2.976562 4.226562 2.878906 4.382812 2.679688 4.382812 C 2.476562 4.382812 2.378906 4.226562 2.304688 4.113281 C 2.238281 4.003906 2.203125 3.957031 2.148438 3.957031 C 2.089844 3.957031 2.054688 4.003906 1.988281 4.113281 C 1.914062 4.226562 1.816406 4.382812 1.617188 4.382812 C 1.414062 4.382812 1.316406 4.226562 1.242188 4.113281 C 1.175781 4.003906 1.140625 3.957031 1.085938 3.957031 C 1.015625 3.957031 0.960938 3.902344 0.960938 3.832031 C 0.960938 3.765625 1.015625 3.707031 1.085938 3.707031 C 1.285156 3.707031 1.382812 3.867188 1.457031 3.980469 C 1.523438 4.085938 1.558594 4.132812 1.617188 4.132812 C 1.671875 4.132812 1.707031 4.085938 1.773438 3.980469 C 1.847656 3.867188 1.945312 3.707031 2.148438 3.707031 C 2.347656 3.707031 2.445312 3.867188 2.519531 3.980469 C 2.585938 4.085938 2.621094 4.132812 2.679688 4.132812 C 2.734375 4.132812 2.769531 4.085938 2.835938 3.980469 C 2.910156 3.867188 3.007812 3.707031 3.210938 3.707031 C 3.410156 3.707031 3.507812 3.867188 3.582031 3.980469 C 3.648438 4.085938 3.683594 4.132812 3.742188 4.132812 C 3.808594 4.132812 3.867188 4.191406 3.867188 4.257812 C 3.867188 4.328125 3.808594 4.382812 3.742188 4.382812 Z M 4.082031 3.601562 C 3.867188 3.601562 3.757812 3.449219 3.679688 3.335938 C 3.601562 3.222656 3.5625 3.179688 3.484375 3.179688 C 3.40625 3.179688 3.367188 3.226562 3.285156 3.335938 C 3.203125 3.449219 3.097656 3.601562 2.882812 3.601562 C 2.667969 3.601562 2.558594 3.449219 2.480469 3.335938 C 2.402344 3.222656 2.359375 3.179688 2.28125 3.179688 C 2.203125 3.179688 2.164062 3.226562 2.085938 3.335938 C 2.003906 3.449219 1.898438 3.601562 1.683594 3.601562 C 1.46875 3.601562 1.359375 3.449219 1.28125 3.335938 C 1.203125 3.222656 1.160156 3.179688 1.082031 3.179688 C 1.015625 3.179688 0.957031 3.121094 0.957031 3.054688 C 0.957031 2.984375 1.015625 2.929688 1.082031 2.929688 C 1.296875 2.929688 1.40625 3.082031 1.484375 3.195312 C 1.5625 3.308594 1.605469 3.351562 1.683594 3.351562 C 1.761719 3.351562 1.800781 3.304688 1.882812 3.195312 C 1.960938 3.082031 2.070312 2.929688 2.28125 2.929688 C 2.496094 2.929688 2.605469 3.082031 2.683594 3.195312 C 2.765625 3.308594 2.804688 3.351562 2.882812 3.351562 C 2.960938 3.351562 3 3.304688 3.082031 3.195312 C 3.160156 3.082031 3.269531 2.929688 3.484375 2.929688 C 3.695312 2.929688 3.804688 3.082031 3.882812 3.195312 C 3.964844 3.308594 4.003906 3.351562 4.082031 3.351562 C 4.152344 3.351562 4.207031 3.410156 4.207031 3.476562 C 4.207031 3.546875 4.152344 3.601562 4.082031 3.601562 Z M 4.082031 3.601562 "/>
<path style=" stroke:none;fill-rule:nonzero;fill:rgb(85.490196%,89.803922%,100%);fill-opacity:1;" d="M 13.058594 14.863281 L 2.859375 14.863281 C 2.160156 14.863281 1.585938 14.289062 1.585938 13.585938 L 1.585938 13.578125 C 1.585938 13.460938 1.679688 13.363281 1.800781 13.363281 L 14.117188 13.363281 C 14.238281 13.363281 14.335938 13.460938 14.335938 13.578125 L 14.335938 13.585938 C 14.335938 14.289062 13.757812 14.863281 13.058594 14.863281 Z M 13.058594 14.863281 "/>
<path style=" stroke:none;fill-rule:nonzero;fill:rgb(100%,67.45098%,76.078431%);fill-opacity:1;" d="M 7.988281 1.492188 C 6.964844 1.894531 6.027344 2.46875 5.214844 3.179688 L 7.988281 3.925781 Z M 7.988281 1.492188 "/>
<path style=" stroke:none;fill-rule:nonzero;fill:rgb(100%,92.156863%,30.196078%);fill-opacity:1;" d="M 1.957031 10.347656 C 1.957031 11.03125 2.03125 11.691406 2.164062 12.332031 L 7.988281 12.332031 L 7.988281 10.125 L 2.125 8.554688 C 2.015625 9.136719 1.957031 9.734375 1.957031 10.347656 Z M 1.957031 10.347656 "/>
<path style=" stroke:none;fill-rule:nonzero;fill:rgb(96.862745%,83.137255%,100%);fill-opacity:1;" d="M 3.714844 4.839844 L 7.988281 5.984375 L 7.988281 3.925781 L 5.214844 3.179688 C 4.652344 3.671875 4.148438 4.226562 3.714844 4.839844 Z M 3.714844 4.839844 "/>
<path style=" stroke:none;fill-rule:nonzero;fill:rgb(85.490196%,89.803922%,100%);fill-opacity:1;" d="M 2.707031 6.640625 L 7.988281 8.054688 L 7.988281 5.996094 L 3.707031 4.847656 C 3.3125 5.402344 2.976562 6.003906 2.707031 6.640625 Z M 2.707031 6.640625 "/>
<path style=" stroke:none;fill-rule:nonzero;fill:rgb(75.294118%,98.823529%,81.568627%);fill-opacity:1;" d="M 2.707031 6.640625 C 2.449219 7.246094 2.253906 7.890625 2.125 8.554688 L 7.988281 10.125 L 7.988281 8.054688 Z M 2.707031 6.640625 "/>
<path style=" stroke:none;fill-rule:nonzero;fill:rgb(100%,100%,100%);fill-opacity:1;" d="M 7.851562 1.6875 C 7 2.046875 6.207031 2.527344 5.492188 3.121094 L 6.628906 3.425781 C 6.914062 3.289062 7.710938 2.460938 7.851562 1.6875 Z M 3.179688 10.410156 C 3.179688 10.132812 3.105469 9.53125 3.210938 8.96875 L 2.242188 8.710938 C 2.148438 9.246094 2.101562 9.796875 2.101562 10.347656 C 2.101562 10.972656 2.164062 11.597656 2.285156 12.207031 L 2.695312 12.207031 C 3.042969 11.707031 3.179688 10.941406 3.179688 10.410156 Z M 6.253906 3.585938 L 5.261719 3.320312 C 4.773438 3.753906 4.328125 4.238281 3.9375 4.765625 L 4.851562 5.007812 C 4.871094 4.714844 4.914062 4.445312 4.992188 4.242188 C 5.171875 3.753906 5.667969 3.800781 6.253906 3.585938 Z M 2.894531 6.554688 L 4.359375 6.949219 C 4.460938 6.875 4.835938 6.671875 4.835938 5.273438 L 3.773438 4.992188 C 3.433594 5.484375 3.136719 6.007812 2.894531 6.554688 Z M 3.257812 8.726562 C 3.308594 8.5 3.191406 7.808594 4.074219 7.132812 L 2.796875 6.789062 C 2.574219 7.328125 2.40625 7.890625 2.289062 8.464844 Z M 3.257812 8.726562 "/>
<path style=" stroke:none;fill-rule:nonzero;fill:rgb(60.392157%,17.647059%,18.431373%);fill-opacity:1;" d="M 14.460938 13.574219 L 14.460938 13.566406 C 14.460938 13.378906 14.304688 13.226562 14.117188 13.226562 L 13.109375 13.226562 C 13.132812 13.097656 13.144531 12.96875 13.144531 12.835938 C 13.144531 12.609375 13.109375 12.390625 13.042969 12.179688 C 12.835938 11.539062 12.328125 11.03125 11.6875 10.816406 C 11.472656 10.746094 11.25 10.710938 11.019531 10.710938 C 10.734375 10.710938 10.453125 10.765625 10.1875 10.878906 C 10.0625 10.929688 9.945312 10.996094 9.835938 11.070312 L 8.125 3.898438 C 8.125 3.890625 8.125 3.886719 8.121094 3.878906 L 8.121094 1.523438 C 8.121094 1.511719 8.117188 1.5 8.113281 1.484375 C 8.113281 1.445312 8.09375 1.410156 8.058594 1.386719 C 8.023438 1.363281 7.980469 1.359375 7.945312 1.375 C 6.914062 1.777344 5.96875 2.355469 5.132812 3.085938 C 4.5625 3.585938 4.050781 4.148438 3.613281 4.765625 C 3.609375 4.765625 3.609375 4.769531 3.609375 4.769531 C 3.609375 4.773438 3.609375 4.773438 3.605469 4.773438 C 3.203125 5.34375 2.863281 5.953125 2.59375 6.589844 C 2.328125 7.210938 2.132812 7.867188 2.003906 8.53125 C 1.890625 9.125 1.835938 9.738281 1.835938 10.347656 C 1.835938 11.023438 1.90625 11.703125 2.042969 12.359375 C 2.054688 12.417969 2.105469 12.457031 2.164062 12.457031 L 7.871094 12.457031 L 7.871094 13.226562 L 1.800781 13.226562 C 1.613281 13.226562 1.460938 13.378906 1.460938 13.566406 L 1.460938 13.574219 C 1.460938 14.058594 1.707031 14.488281 2.085938 14.742188 L 1.160156 14.742188 C 1.09375 14.742188 1.035156 14.796875 1.035156 14.867188 C 1.035156 14.933594 1.09375 14.992188 1.160156 14.992188 L 14.035156 14.992188 C 14.105469 14.992188 14.160156 14.933594 14.160156 14.867188 C 14.160156 14.796875 14.105469 14.742188 14.035156 14.742188 L 13.832031 14.742188 C 14.210938 14.488281 14.460938 14.058594 14.460938 13.574219 Z M 12.894531 12.832031 C 12.894531 12.964844 12.882812 13.09375 12.855469 13.222656 L 12.242188 13.222656 L 11.953125 13.101562 C 11.976562 13.015625 11.988281 12.925781 11.988281 12.832031 C 11.988281 12.777344 11.984375 12.71875 11.976562 12.664062 L 12.496094 12.492188 L 12.839844 12.375 C 12.875 12.527344 12.894531 12.679688 12.894531 12.832031 Z M 11.726562 11.097656 C 12.199219 11.289062 12.574219 11.667969 12.761719 12.140625 L 12.003906 12.390625 L 11.898438 12.425781 C 11.804688 12.222656 11.640625 12.058594 11.441406 11.960938 Z M 11.738281 12.832031 C 11.738281 12.933594 11.71875 13.03125 11.679688 13.121094 C 11.664062 13.15625 11.644531 13.191406 11.625 13.222656 L 10.417969 13.222656 C 10.394531 13.191406 10.375 13.15625 10.359375 13.121094 C 10.320312 13.03125 10.300781 12.933594 10.300781 12.832031 C 10.300781 12.757812 10.3125 12.6875 10.332031 12.617188 C 10.394531 12.417969 10.539062 12.257812 10.734375 12.171875 C 10.824219 12.132812 10.921875 12.113281 11.019531 12.113281 C 11.097656 12.113281 11.171875 12.125 11.246094 12.152344 C 11.464844 12.226562 11.636719 12.398438 11.707031 12.617188 C 11.726562 12.6875 11.738281 12.761719 11.738281 12.832031 Z M 11.019531 10.957031 C 11.179688 10.957031 11.335938 10.976562 11.492188 11.015625 L 11.203125 11.882812 C 11.144531 11.867188 11.082031 11.863281 11.019531 11.863281 C 10.929688 11.863281 10.839844 11.875 10.753906 11.902344 L 10.402344 11.0625 C 10.601562 10.992188 10.808594 10.957031 11.019531 10.957031 Z M 9.828125 11.382812 C 9.835938 11.382812 9.835938 11.378906 9.84375 11.375 C 9.945312 11.292969 10.054688 11.21875 10.171875 11.160156 L 10.523438 12 C 10.355469 12.101562 10.222656 12.25 10.140625 12.425781 L 9.277344 12.140625 C 9.394531 11.84375 9.585938 11.585938 9.828125 11.382812 Z M 10.089844 13.101562 L 9.800781 13.226562 L 9.1875 13.226562 C 9.160156 13.097656 9.144531 12.96875 9.144531 12.835938 C 9.144531 12.679688 9.164062 12.527344 9.203125 12.378906 L 9.890625 12.605469 L 10.066406 12.664062 C 10.058594 12.71875 10.054688 12.777344 10.054688 12.832031 C 10.050781 12.925781 10.0625 13.015625 10.089844 13.101562 Z M 7.863281 12.207031 L 2.265625 12.207031 C 2.144531 11.597656 2.082031 10.972656 2.082031 10.347656 C 2.082031 9.796875 2.132812 9.25 2.226562 8.710938 L 7.863281 10.222656 Z M 7.863281 9.960938 L 2.273438 8.464844 C 2.390625 7.890625 2.558594 7.328125 2.78125 6.789062 L 7.863281 8.152344 Z M 7.863281 7.890625 L 6.621094 7.558594 L 2.878906 6.554688 C 3.121094 6.007812 3.417969 5.484375 3.757812 4.992188 L 7.863281 6.089844 Z M 7.863281 5.820312 L 3.921875 4.765625 C 4.3125 4.238281 4.757812 3.753906 5.246094 3.316406 L 7.703125 3.976562 L 7.863281 4.019531 Z M 7.863281 3.761719 L 7.199219 3.582031 L 5.476562 3.121094 C 6.195312 2.519531 7 2.035156 7.863281 1.675781 Z M 8.121094 4.949219 L 9.617188 11.234375 C 9.332031 11.484375 9.117188 11.8125 9 12.179688 C 8.929688 12.390625 8.894531 12.609375 8.894531 12.832031 C 8.894531 12.964844 8.90625 13.09375 8.929688 13.222656 L 8.121094 13.222656 Z M 13.058594 14.726562 L 2.859375 14.726562 C 2.226562 14.726562 1.710938 14.207031 1.710938 13.574219 L 1.710938 13.566406 C 1.710938 13.515625 1.75 13.476562 1.800781 13.476562 L 14.117188 13.476562 C 14.167969 13.476562 14.210938 13.515625 14.210938 13.566406 L 14.210938 13.574219 C 14.210938 14.207031 13.691406 14.726562 13.058594 14.726562 Z M 13.058594 14.726562 "/>
<path style=" stroke:none;fill-rule:nonzero;fill:rgb(100%,92.156863%,30.196078%);fill-opacity:1;" d="M 4.957031 1.597656 C 4.957031 1.875 5.183594 2.097656 5.457031 2.097656 C 5.734375 2.097656 5.957031 1.875 5.957031 1.597656 C 5.957031 1.324219 5.734375 1.097656 5.457031 1.097656 C 5.183594 1.097656 4.957031 1.324219 4.957031 1.597656 Z M 4.957031 1.597656 "/>
<path style=" stroke:none;fill-rule:nonzero;fill:rgb(60.392157%,17.647059%,18.431373%);fill-opacity:1;" d="M 5.457031 2.222656 C 5.113281 2.222656 4.832031 1.945312 4.832031 1.597656 C 4.832031 1.253906 5.113281 0.972656 5.457031 0.972656 C 5.804688 0.972656 6.082031 1.253906 6.082031 1.597656 C 6.082031 1.945312 5.804688 2.222656 5.457031 2.222656 Z M 5.457031 1.222656 C 5.25 1.222656 5.082031 1.390625 5.082031 1.597656 C 5.082031 1.804688 5.25 1.972656 5.457031 1.972656 C 5.664062 1.972656 5.832031 1.804688 5.832031 1.597656 C 5.832031 1.390625 5.664062 1.222656 5.457031 1.222656 Z M 5.457031 1.222656 "/>
</g>
</svg>
